<?xml version="1.0" encoding="UTF-8" standalone="no"?>
<!-- Created with Inkscape (http://www.inkscape.org/) -->

<svg
   xmlns:dc="http://purl.org/dc/elements/1.1/"
   xmlns:cc="http://creativecommons.org/ns#"
   xmlns:rdf="http://www.w3.org/1999/02/22-rdf-syntax-ns#"
   xmlns:svg="http://www.w3.org/2000/svg"
   xmlns="http://www.w3.org/2000/svg"
   xmlns:xlink="http://www.w3.org/1999/xlink"
   xmlns:sodipodi="http://sodipodi.sourceforge.net/DTD/sodipodi-0.dtd"
   xmlns:inkscape="http://www.inkscape.org/namespaces/inkscape"
   width="140"
   height="140"
   viewBox="0 0 140 140"
   id="svg2"
   version="1.1"
   inkscape:version="0.91 r13725"
   sodipodi:docname="til-ch-logo.svg"
   inkscape:export-filename="D:\Documents\GitHub\tilog-ch\images\til-ch-logo.png"
   inkscape:export-xdpi="90"
   inkscape:export-ydpi="90">
  <defs
     id="defs4">
    <linearGradient
       inkscape:collect="always"
       id="linearGradient4353">
      <stop
         style="stop-color:#3f9f7d;stop-opacity:1"
         offset="0"
         id="stop4355" />
      <stop
         style="stop-color:#3f8a9f;stop-opacity:1"
         offset="1"
         id="stop4357" />
    </linearGradient>
    <linearGradient
       inkscape:collect="always"
       xlink:href="#linearGradient4353"
       id="linearGradient4359"
       x1="45"
       y1="902.36218"
       x2="95"
       y2="1067.3622"
       gradientUnits="userSpaceOnUse" />
    <filter
       inkscape:collect="always"
       style="color-interpolation-filters:sRGB"
       id="filter4401"
       x="-0.048000007"
       width="1.096"
       y="-0.047999993"
       height="1.096">
      <feGaussianBlur
         inkscape:collect="always"
         stdDeviation="2.8000004"
         id="feGaussianBlur4403" />
    </filter>
    <clipPath
       clipPathUnits="userSpaceOnUse"
       id="clipPath4414">
      <rect
         style="fill:#000000;fill-opacity:1;stroke:none;stroke-width:0.1;stroke-linecap:square;stroke-linejoin:bevel;stroke-miterlimit:4;stroke-dasharray:none;stroke-opacity:1"
         id="rect4416"
         width="140"
         height="140.00002"
         x="0"
         y="912.36218" />
    </clipPath>
  </defs>
  <sodipodi:namedview
     id="base"
     pagecolor="#ffffff"
     bordercolor="#666666"
     borderopacity="1.0"
     inkscape:pageopacity="0.0"
     inkscape:pageshadow="2"
     inkscape:zoom="2.7214286"
     inkscape:cx="110.36082"
     inkscape:cy="49.442266"
     inkscape:document-units="px"
     inkscape:current-layer="layer1"
     showgrid="false"
     units="px"
     inkscape:object-paths="true"
     inkscape:snap-intersection-paths="true"
     inkscape:object-nodes="true"
     showguides="false"
     inkscape:window-width="1218"
     inkscape:window-height="1001"
     inkscape:window-x="1974"
     inkscape:window-y="-8"
     inkscape:window-maximized="1">
    <inkscape:grid
       type="xygrid"
       id="grid4136" />
  </sodipodi:namedview>
  <metadata
     id="metadata7">
    <rdf:RDF>
      <cc:Work
         rdf:about="">
        <dc:format>image/svg+xml</dc:format>
        <dc:type
           rdf:resource="http://purl.org/dc/dcmitype/StillImage" />
        <dc:title></dc:title>
      </cc:Work>
    </rdf:RDF>
  </metadata>
  <g
     inkscape:label="Layer 1"
     inkscape:groupmode="layer"
     id="layer1"
     transform="translate(0,-912.36216)">
    <g
       id="g4407"
       clip-path="url(#clipPath4414)">
      <path
         inkscape:connector-curvature="0"
         d="m 0,912.36218 140,0 0,140.00002 -140,0 z m 10,0 20,0 0,140.00002 -20,0 z m -10,10 50,0 0,14.99998 -50,0 z M 60,912.36216 -0.22524348,972.5874 0,947.36216 l 35,-35 z m -60,60 79.774757,79.77474 L 55,1052.3622 0,997.36216 Z m 90,-50 L 29.774757,982.5874 30,957.36216 l 35,-35 z m -60,35 55,55.00004 0,25 -55,-55.00004 z m 55,-30 0,125.00004 15,0 0,-125.00004 z m 0,55 55,55.00004 0,15 -10,0 -45,-45 z m 55,40.00004 -20.22524,20.2252 0.22524,-25.2252 20,-20.00004 z"
         style="fill:#2b2b2b;fill-opacity:1;fill-rule:evenodd;stroke:none;stroke-width:0.1;stroke-linecap:butt;stroke-linejoin:miter;stroke-miterlimit:4;stroke-dasharray:none;stroke-opacity:1"
         id="path4160" />
      <path
         style="fill:#000000;fill-opacity:1;stroke:none;stroke-width:0.1;stroke-linecap:square;stroke-linejoin:bevel;stroke-miterlimit:4;stroke-dasharray:none;stroke-opacity:1;filter:url(#filter4401)"
         d="m 14,916.36216 0,10 15,0 5,-5 0,-5 -20,0 z m 20,5 0,5 20,0 10,-10 -25,0 -5,5 z m 20,5 -15,15 15,0 0,-15 z m 0,15 -20,20 12.5,12.5 42.5,-42.5 5,-5 -25,0 -15,15 z m 35,-10 0,55 15,15.00004 0,-70.00004 -15,0 z m 15,70.00004 0,25 19.7793,19.7793 0.2207,-24.7793 -20,-20 z m 20,20 12.5,12.5 7.5,-7.5 0,-25 -20,20 z m 12.5,12.5 -12.5,12.5 10,10 10,0 0,-15 -7.5,-7.5 z m -12.5,12.5 -0.2207,-0.2207 -0.004,0.4453 0.2247,-0.2246 z m -20,-20 -15,-15 0,5 -42.5,-42.50004 -12.5,12.5 55,55.00004 0,15 15,0 0,-30 z M 34,986.36216 33.775391,986.58677 34,961.36216 l 0,-15 -20,20 0,20 20,20.00004 0,-20.00004 z m 0,20.00004 0,25 25,25 24.775391,-0.2246 L 34,1006.3622 Z m 0,25 -20,-20 0,45 20,0 0,-25 z m -20,-20 0,-25.00004 -10,-10 0,25.00004 10,10 z m -10,-35.00004 10,-10 0,-25 -10,10 0,25 z m 10,-35 0,-15 -10,0 0,15 10,0 z m 0,0 20,0 0,-15 -5,0 -15,15 z m 20,0 0,5 5,-5 -5,0 z"
         id="path4369"
         inkscape:connector-curvature="0" />
      <path
         inkscape:connector-curvature="0"
         id="rect4347"
         d="m 10,912.36216 0,10 15,0 5,-5 0,-5 -20,0 z m 20,5 0,5 20,0 10,-10 -25,0 -5,5 z m 20,5 -15,15 15,0 0,-15 z m 0,15 -20,20 12.5,12.5 42.5,-42.5 5,-5 -25,0 -15,15 z m 35,-10 0,55 15,15 0,-70 -15,0 z m 15,70 0,25.00004 19.7793,19.7793 0.2207,-24.7793 -20,-20.00004 z m 20,20.00004 12.5,12.5 7.5,-7.5 0,-25.00004 -20,20.00004 z m 12.5,12.5 -12.5,12.5 10,10 10,0 0,-15 -7.5,-7.5 z m -12.5,12.5 -0.2207,-0.2207 -0.004,0.4453 0.2247,-0.2246 z m -20,-20 -15,-15 0,5 -42.5,-42.50004 -12.5,12.5 55,55.00004 0,15 15,0 0,-30 z M 30,982.36216 29.775391,982.58677 30,957.36216 l 0,-15 -20,20 0,20 20,20.00004 0,-20.00004 z m 0,20.00004 0,25 25,25 24.775391,-0.2246 L 30,1002.3622 Z m 0,25 -20,-20 0,45 20,0 0,-25 z m -20,-20 0,-25.00004 -10,-10 0,25 10,10.00004 z m -10,-35.00004 10,-10 0,-25 -10,10 0,25 z m 10,-35 0,-15 -10,0 0,15 10,0 z m 0,0 20,0 0,-15 -5,0 -15,15 z m 20,0 0,5 5,-5 -5,0 z"
         style="fill:url(#linearGradient4359);fill-opacity:1;stroke:none;stroke-width:0.1;stroke-linecap:square;stroke-linejoin:bevel;stroke-miterlimit:4;stroke-dasharray:none;stroke-opacity:1" />
    </g>
  </g>
</svg>
